<?xml version="1.0" encoding="UTF-8"?>
<svg width="13px" height="13px" viewBox="0 0 13 13" version="1.1" xmlns="http://www.w3.org/2000/svg" xmlns:xlink="http://www.w3.org/1999/xlink">
    <title>checkmark</title>
    <g id="Page-1" stroke="none" stroke-width="1" fill="none" fill-rule="evenodd">
        <path d="M5.20019531,12.1005859 C5.49414062,12.1005859 5.7265625,11.9707031 5.890625,11.7177734 L12.3505859,1.54589844 C12.4736328,1.34765625 12.5214844,1.19726562 12.5214844,1.04003906 C12.5214844,0.6640625 12.2753906,0.41796875 11.8994141,0.41796875 C11.6259766,0.41796875 11.4755859,0.506835938 11.3115234,0.766601562 L5.17285156,10.5488281 L1.98730469,6.37890625 C1.81640625,6.13964844 1.64550781,6.04394531 1.39941406,6.04394531 C1.00976562,6.04394531 0.743164062,6.31054688 0.743164062,6.68652344 C0.743164062,6.84375 0.811523438,7.02148438 0.94140625,7.18554687 L4.48925781,11.7041016 C4.69433594,11.9707031 4.90625,12.1005859 5.20019531,12.1005859 Z" id="checkmark" fill="#000000" fill-rule="nonzero"></path>
    </g>
</svg>